<svg width="22" height="21" viewBox="0 0 22 21" fill="none" xmlns="http://www.w3.org/2000/svg">
<path d="M15 20.0098H3C2.20435 20.0098 1.44129 19.6937 0.878681 19.1311C0.316072 18.5685 0 17.8054 0 17.0098V7.00977C0 6.21412 0.316072 5.45104 0.878681 4.88843C1.44129 4.32582 2.20435 4.00977 3 4.00977H6V3.00977C6 2.21412 6.31607 1.45104 6.87868 0.888428C7.44129 0.325819 8.20435 0.00976562 9 0.00976562H13C13.7956 0.00976562 14.5587 0.325819 15.1213 0.888428C15.6839 1.45104 16 2.21412 16 3.00977V4.00977H19C19.7956 4.00977 20.5587 4.32582 21.1213 4.88843C21.6839 5.45104 22 6.21412 22 7.00977V17.0098C22 17.8054 21.6839 18.5685 21.1213 19.1311C20.5587 19.6937 19.7956 20.0098 19 20.0098H15ZM19 18.0098C19.2652 18.0098 19.5196 17.9044 19.7071 17.7169C19.8946 17.5293 20 17.275 20 17.0098V7.00977C20 6.74455 19.8946 6.49021 19.7071 6.30267C19.5196 6.11514 19.2652 6.00977 19 6.00977H16V18.0098H19ZM14 18.0098V6.00977H8V18.0098H14ZM2 7.00977V17.0098C2 17.275 2.10536 17.5293 2.29289 17.7169C2.48043 17.9044 2.73478 18.0098 3 18.0098H6V6.00977H3C2.73478 6.00977 2.48043 6.11514 2.29289 6.30267C2.10536 6.49021 2 6.74455 2 7.00977ZM14 4.00977V3.00977C14 2.74455 13.8946 2.49021 13.7071 2.30267C13.5196 2.11514 13.2652 2.00977 13 2.00977H9C8.73478 2.00977 8.48043 2.11514 8.29289 2.30267C8.10536 2.49021 8 2.74455 8 3.00977V4.00977H14Z" fill="#809FB8"/>
</svg>
