<svg width="28" height="20" viewBox="0 0 28 20" fill="none" xmlns="http://www.w3.org/2000/svg">
<path d="M3.25208 19.519C2.88193 19.5204 2.51519 19.4487 2.17285 19.3079C1.83052 19.1672 1.51939 18.9601 1.25733 18.6987C0.995268 18.4373 0.787494 18.1267 0.645877 17.7847C0.50426 17.4427 0.431602 17.0761 0.432132 16.706V14.656C0.432132 13.767 0.486179 13.806 1.18018 13.621C1.93638 13.3639 2.59303 12.8765 3.05811 12.2271C3.52319 11.5778 3.77332 10.7992 3.77332 10.0005C3.77332 9.20176 3.52319 8.42311 3.05811 7.77378C2.59303 7.12445 1.93638 6.63704 1.18018 6.37997C0.486179 6.19497 0.432132 6.23595 0.432132 5.34595V3.29496C0.431602 2.92481 0.50426 2.55821 0.645877 2.21622C0.787494 1.87424 0.995268 1.56361 1.25733 1.30221C1.51939 1.0408 1.83052 0.833766 2.17285 0.692999C2.51519 0.552233 2.88193 0.480505 3.25208 0.481955H24.8102C25.1803 0.48077 25.5468 0.552673 25.889 0.693534C26.2313 0.834394 26.5423 1.04145 26.8043 1.3028C27.0663 1.56416 27.2742 1.87468 27.4159 2.21654C27.5576 2.55841 27.6304 2.92489 27.6301 3.29496V5.34595C27.6301 6.23595 27.5741 6.19497 26.8821 6.37997C26.1259 6.63704 25.4692 7.12445 25.0042 7.77378C24.5391 8.42311 24.2889 9.20176 24.2889 10.0005C24.2889 10.7992 24.5391 11.5778 25.0042 12.2271C25.4692 12.8765 26.1259 13.3639 26.8821 13.621C27.5741 13.806 27.6301 13.767 27.6301 14.656V16.706C27.6304 17.076 27.5576 17.4425 27.4159 17.7844C27.2742 18.1262 27.0663 18.4368 26.8043 18.6981C26.5423 18.9595 26.2313 19.1665 25.889 19.3074C25.5468 19.4482 25.1803 19.5201 24.8102 19.519H3.25208ZM15.5911 11.556C15.2942 11.8537 15.0922 12.2327 15.0106 12.6451C14.929 13.0575 14.9714 13.4849 15.1326 13.8733C15.2937 14.2616 15.5664 14.5934 15.916 14.8269C16.2657 15.0604 16.6767 15.185 17.0972 15.185C17.5176 15.185 17.9285 15.0604 18.2782 14.8269C18.6279 14.5934 18.9005 14.2616 19.0616 13.8733C19.2228 13.4849 19.2653 13.0575 19.1837 12.6451C19.1021 12.2327 18.9001 11.8537 18.6032 11.556C18.2104 11.1649 17.6813 10.9413 17.1271 10.932H17.1032C16.5364 10.9315 15.9926 11.156 15.5911 11.556ZM16.4971 5.97095L9.99707 12.462C9.91749 12.5403 9.8543 12.6337 9.81116 12.7367C9.76802 12.8397 9.74585 12.9503 9.74585 13.062C9.74585 13.1736 9.76802 13.2842 9.81116 13.3872C9.8543 13.4902 9.91749 13.5836 9.99707 13.662L10.3682 14.029C10.4467 14.1082 10.5401 14.1711 10.6431 14.214C10.746 14.2569 10.8566 14.279 10.9681 14.279C11.0797 14.279 11.1901 14.2569 11.2931 14.214C11.3961 14.1711 11.4896 14.1082 11.5681 14.029L18.0681 7.53995C18.1472 7.46133 18.21 7.36785 18.2528 7.26488C18.2956 7.16191 18.3178 7.05149 18.3178 6.93996C18.3178 6.82844 18.2956 6.71801 18.2528 6.61504C18.21 6.51207 18.1472 6.41858 18.0681 6.33996L17.6981 5.97297C17.5388 5.8142 17.3231 5.72504 17.0981 5.72504C16.8732 5.72504 16.6575 5.8142 16.4982 5.97297L16.4971 5.97095ZM9.45716 5.43496C9.10814 5.78276 8.89024 6.24066 8.84058 6.73087C8.79092 7.22109 8.91252 7.71338 9.1847 8.12411C9.45687 8.53483 9.86281 8.83867 10.3336 8.98398C10.8044 9.1293 11.311 9.10713 11.7673 8.92126C12.2237 8.73538 12.6016 8.39726 12.8369 7.96433C13.0722 7.53141 13.1503 7.03038 13.058 6.54638C12.9657 6.06237 12.7087 5.62525 12.3307 5.30926C11.9526 4.99326 11.4768 4.8179 10.9841 4.81296H10.9581C10.3953 4.81486 9.85592 5.03873 9.45716 5.43597V5.43496ZM16.5502 13.602C16.4234 13.4758 16.3441 13.3096 16.3262 13.1316C16.3082 12.9536 16.3526 12.7749 16.4517 12.6259C16.5507 12.477 16.6983 12.367 16.8694 12.3147C17.0405 12.2624 17.2244 12.2711 17.3898 12.3393C17.5552 12.4074 17.6919 12.5308 17.7765 12.6885C17.8611 12.8461 17.8883 13.0282 17.8536 13.2037C17.819 13.3792 17.7246 13.5372 17.5864 13.6509C17.4483 13.7645 17.275 13.8268 17.0961 13.827C16.9946 13.827 16.8941 13.8069 16.8004 13.768C16.7067 13.729 16.6217 13.6719 16.5502 13.6V13.602ZM10.4181 7.48296C10.3101 7.3748 10.2368 7.23694 10.2074 7.08695C10.178 6.93696 10.194 6.78162 10.2532 6.64071C10.3124 6.49979 10.4121 6.37969 10.5398 6.29568C10.6675 6.21167 10.8173 6.16756 10.9701 6.16897C11.1722 6.17191 11.3654 6.25289 11.5092 6.39496C11.6534 6.53964 11.7343 6.7357 11.734 6.94002C11.7337 7.14434 11.6522 7.34018 11.5076 7.48446C11.3629 7.62874 11.1668 7.70964 10.9625 7.70936C10.7582 7.70908 10.5624 7.62764 10.4181 7.48296Z" fill="#F9B959"/>
</svg>
