<svg width="28" height="18" viewBox="0 0 28 18" fill="none" xmlns="http://www.w3.org/2000/svg">
<path d="M21.8401 12.6249H24.9631C25.1465 12.6107 25.3281 12.6693 25.4686 12.7879C25.6091 12.9065 25.6973 13.0757 25.7141 13.2589V13.5229C25.6973 13.706 25.6091 13.8752 25.4686 13.9938C25.3281 14.1125 25.1465 14.171 24.9631 14.1569H21.8401C21.6568 14.171 21.4752 14.1125 21.3346 13.9938C21.1941 13.8752 21.1059 13.706 21.0891 13.5229V13.2589C21.1059 13.0757 21.1941 12.9065 21.3346 12.7879C21.4752 12.6693 21.6568 12.6107 21.8401 12.6249ZM15.5921 12.6249H18.7151C18.8985 12.6107 19.08 12.6693 19.2206 12.7879C19.3611 12.9065 19.4493 13.0757 19.4661 13.2589V13.5229C19.4493 13.706 19.3611 13.8752 19.2206 13.9938C19.08 14.1125 18.8985 14.171 18.7151 14.1569H15.5921C15.4087 14.171 15.2272 14.1125 15.0867 13.9938C14.9461 13.8752 14.8579 13.706 14.8411 13.5229V13.2589C14.8579 13.0757 14.9461 12.9065 15.0867 12.7879C15.2272 12.6693 15.4087 12.6107 15.5921 12.6249ZM9.34411 12.6249H12.4671C12.6501 12.6112 12.8312 12.6701 12.9713 12.7887C13.1114 12.9072 13.1993 13.0761 13.2161 13.2589V13.5229C13.1993 13.7056 13.1114 13.8745 12.9713 13.9931C12.8312 14.1117 12.6501 14.1705 12.4671 14.1569H9.34411C9.16074 14.171 8.97915 14.1125 8.83861 13.9938C8.69808 13.8752 8.60992 13.706 8.59313 13.5229V13.2589C8.60992 13.0757 8.69808 12.9065 8.83861 12.7879C8.97915 12.6693 9.16074 12.6107 9.34411 12.6249ZM3.09612 12.6249H6.21911C6.40247 12.6107 6.58407 12.6693 6.7246 12.7879C6.86513 12.9065 6.95329 13.0757 6.97008 13.2589V13.5229C6.95329 13.706 6.86513 13.8752 6.7246 13.9938C6.58407 14.1125 6.40247 14.171 6.21911 14.1569H3.10009C2.91672 14.171 2.73519 14.1125 2.59466 13.9938C2.45412 13.8752 2.36591 13.706 2.34911 13.5229V13.2589C2.36591 13.0757 2.45412 12.9065 2.59466 12.7879C2.73519 12.6693 2.91672 12.6107 3.10009 12.6249H3.09612ZM3.92614 2.83086H8.03313C8.2514 2.85243 8.4525 2.95882 8.59313 3.12714C8.73376 3.29545 8.80266 3.51224 8.78509 3.73087V5.50786C8.80266 5.72649 8.73376 5.94329 8.59313 6.1116C8.4525 6.27992 8.2514 6.3863 8.03313 6.40787H3.92614C3.70776 6.38655 3.50652 6.28022 3.36583 6.11185C3.22515 5.94347 3.15629 5.72654 3.17412 5.50786V3.73087C3.15629 3.51218 3.22515 3.29525 3.36583 3.12688C3.50652 2.9585 3.70776 2.85218 3.92614 2.83086ZM2.66112 0.151855C2.00217 0.227423 1.39922 0.558645 0.981985 1.07425C0.564751 1.58985 0.366561 2.24864 0.430105 2.90886V15.0799C0.366574 15.74 0.564791 16.3986 0.982046 16.9141C1.3993 17.4295 2.00225 17.7605 2.66112 17.8359H25.4001C26.0589 17.7603 26.6617 17.4292 27.0789 16.9138C27.4961 16.3984 27.6944 15.7399 27.6311 15.0799V2.90886C27.6946 2.24864 27.4965 1.58985 27.0793 1.07425C26.662 0.558645 26.0591 0.227423 25.4001 0.151855H2.66112Z" fill="#06C8CA"/>
</svg>
