<svg width="24" height="25" viewBox="0 0 24 25" fill="none" xmlns="http://www.w3.org/2000/svg">
<path d="M16.2639 22.9C16.2639 22.5242 16.3753 22.1569 16.5841 21.8444C16.7929 21.532 17.0896 21.2884 17.4368 21.1446C17.784 21.0008 18.166 20.9632 18.5346 21.0365C18.9032 21.1098 19.2417 21.2908 19.5074 21.5565C19.7732 21.8222 19.9541 22.1608 20.0274 22.5293C20.1007 22.8979 20.0631 23.2799 19.9193 23.6271C19.7755 23.9743 19.532 24.271 19.2195 24.4798C18.907 24.6886 18.5397 24.8 18.1639 24.8C17.66 24.8 17.1767 24.5998 16.8204 24.2435C16.4641 23.8872 16.2639 23.4039 16.2639 22.9ZM8.70592 22.9C8.70592 22.5242 8.81736 22.1569 9.02614 21.8444C9.23491 21.532 9.53165 21.2884 9.87883 21.1446C10.226 21.0008 10.608 20.9632 10.9766 21.0365C11.3452 21.1098 11.6837 21.2908 11.9494 21.5565C12.2151 21.8222 12.3961 22.1608 12.4694 22.5293C12.5427 22.8979 12.5051 23.2799 12.3613 23.6271C12.2175 23.9743 11.974 24.271 11.6615 24.4798C11.3491 24.6886 10.9817 24.8 10.6059 24.8C10.3563 24.8001 10.1092 24.7511 9.87852 24.6557C9.64789 24.5602 9.4383 24.4203 9.26176 24.2439C9.08523 24.0674 8.9452 23.8579 8.84965 23.6273C8.75411 23.3968 8.70491 23.1496 8.70491 22.9H8.70592ZM18.8619 19.731H9.99992C9.15692 19.7091 8.3352 19.4616 7.62041 19.0141C6.90562 18.5667 6.32393 17.9357 5.93593 17.187C5.34487 16.1195 4.93336 14.962 4.71791 13.761L2.66994 3.093L0.929916 2.479C0.649321 2.39142 0.407757 2.20929 0.246353 1.96362C0.0849486 1.71796 0.0136815 1.42394 0.0446925 1.13164C0.0757034 0.839333 0.20707 0.566807 0.416427 0.360474C0.625784 0.154141 0.900191 0.0267547 1.19292 0L3.91591 0.839005C4.11294 0.897776 4.2919 1.00543 4.43614 1.15195C4.58039 1.29846 4.68524 1.47908 4.74092 1.677L5.19292 3.056L21.9929 3.043C23.3199 3.043 24.0779 3.326 23.9409 4.756L21.3819 13.456C21.1169 14.556 20.5189 15.51 19.4449 15.51H7.74492C7.91819 15.9815 8.22241 16.3938 8.62184 16.6985C9.02128 17.0032 9.49935 17.1876 9.99992 17.23H18.8609C19.1806 17.2443 19.4827 17.3805 19.7052 17.6106C19.9276 17.8407 20.0535 18.1472 20.0569 18.4672C20.0604 18.7872 19.9411 19.0964 19.7237 19.3313C19.5063 19.5661 19.2073 19.7088 18.8879 19.73L18.8619 19.731ZM17.6619 7.369L16.4529 11.875C16.4243 11.9679 16.4192 12.0665 16.4382 12.1619C16.4571 12.2572 16.4995 12.3464 16.5615 12.4213C16.6235 12.4962 16.7032 12.5545 16.7934 12.5909C16.8835 12.6274 16.9813 12.6408 17.0779 12.63H17.4289C17.6578 12.627 17.8801 12.5526 18.0647 12.4173C18.2493 12.2819 18.3872 12.0924 18.4589 11.875L19.6649 7.369C19.6936 7.27613 19.6987 7.17757 19.6798 7.08223C19.6608 6.98689 19.6184 6.89776 19.5564 6.82292C19.4944 6.74808 19.4147 6.68988 19.3245 6.65358C19.2343 6.61728 19.1365 6.60402 19.0399 6.61501H18.6889C18.4612 6.61885 18.2404 6.69325 18.0568 6.82794C17.8732 6.96264 17.7359 7.15098 17.6639 7.367L17.6619 7.369ZM12.2919 7.42799L11.8339 11.816C11.8207 11.9198 11.8302 12.0253 11.8617 12.1251C11.8932 12.2249 11.946 12.3167 12.0165 12.3941C12.0869 12.4715 12.1734 12.5327 12.2698 12.5734C12.3662 12.6141 12.4703 12.6335 12.5749 12.63H12.9249C13.1497 12.6274 13.366 12.5436 13.5339 12.394C13.7017 12.2443 13.8097 12.039 13.8379 11.816L14.2979 7.42799C14.3108 7.32414 14.3011 7.21874 14.2694 7.119C14.2377 7.01927 14.1847 6.92758 14.1142 6.85023C14.0437 6.77289 13.9574 6.71174 13.861 6.67096C13.7646 6.63018 13.6605 6.61075 13.5559 6.614H13.2049C12.9806 6.61722 12.7651 6.7012 12.5978 6.85054C12.4304 6.99988 12.3225 7.20455 12.2939 7.427L12.2919 7.42799ZM7.23192 7.42799L7.69191 11.816C7.72015 12.039 7.82817 12.2443 7.99599 12.394C8.16381 12.5436 8.38011 12.6274 8.60493 12.63H8.95592C9.06053 12.6335 9.16464 12.6141 9.26106 12.5734C9.35748 12.5327 9.4439 12.4715 9.51436 12.3941C9.58482 12.3167 9.63766 12.2249 9.66917 12.1251C9.70069 12.0253 9.71014 11.9198 9.69691 11.816L9.23692 7.42799C9.20868 7.20494 9.10067 6.99964 8.93285 6.85002C8.76503 6.7004 8.54875 6.61656 8.32393 6.614H7.97292C7.86861 6.61104 7.76491 6.63066 7.6689 6.67152C7.57289 6.71238 7.48683 6.77351 7.41664 6.85072C7.34646 6.92794 7.29379 7.01942 7.26225 7.11888C7.23071 7.21835 7.22106 7.32345 7.23393 7.427L7.23192 7.42799Z" fill="#0090FF"/>
</svg>
