<svg width="22" height="26" viewBox="0 0 22 26" fill="none" xmlns="http://www.w3.org/2000/svg">
<path d="M10.9999 0.00976562C7.73286 0.00976562 6.06086 2.65376 6.00586 5.90976C6.00216 5.94297 6.00016 5.97635 5.99986 6.00977V7.00977H1.99986C1.73464 7.00977 1.48029 7.11514 1.29275 7.30267C1.10522 7.49021 0.999861 7.74455 0.999861 8.00977V16.0098C0.963717 17.5877 1.00877 19.1665 1.13486 20.7398C1.11482 21.2886 1.20819 21.8357 1.40913 22.3468C1.61007 22.8579 1.91426 23.3221 2.3027 23.7104C2.69114 24.0986 3.15548 24.4026 3.6667 24.6033C4.17792 24.804 4.72503 24.8971 5.27386 24.8768C6.51143 25.0053 7.75628 25.0497 8.99986 25.0098H13.9999C15.2448 25.0496 16.491 25.0045 17.7299 24.8748C18.9519 24.7368 18.9649 24.4428 19.7009 23.7068C20.4206 22.8806 20.8326 21.831 20.8669 20.7358C20.9917 19.1637 21.0361 17.5863 20.9999 16.0098V8.00977C20.9999 7.74455 20.8945 7.49021 20.707 7.30267C20.5194 7.11514 20.2651 7.00977 19.9999 7.00977H15.9999V6.00977C16 5.97201 15.998 5.93428 15.9939 5.89676C15.9329 2.64776 14.2629 0.00976562 10.9999 0.00976562ZM10.9999 2.00977C13.2189 2.00977 13.9999 3.79077 13.9999 6.00977V7.00977H7.99986V6.00977C7.99986 3.79077 8.78086 2.00977 10.9999 2.00977ZM2.99986 9.00977H5.99986V11.0098C5.99615 11.275 6.09794 11.5308 6.28285 11.721C6.46777 11.9111 6.72064 12.0201 6.98586 12.0238C7.25108 12.0275 7.50691 11.9257 7.69707 11.7408C7.88723 11.5559 7.99615 11.303 7.99986 11.0378C7.99986 11.0288 7.99986 11.0188 7.99986 11.0098V9.00977H13.9999V11.0098C13.998 11.1411 14.0221 11.2715 14.0706 11.3935C14.1192 11.5156 14.1913 11.6268 14.2829 11.721C14.3744 11.8151 14.4836 11.8903 14.6042 11.9423C14.7249 11.9942 14.8545 12.0219 14.9859 12.0238C15.1172 12.0256 15.2476 12.0016 15.3696 11.953C15.4916 11.9044 15.6029 11.8323 15.6971 11.7408C15.7912 11.6492 15.8664 11.54 15.9184 11.4194C15.9703 11.2988 15.998 11.1691 15.9999 11.0378C15.9999 11.0288 15.9999 11.0188 15.9999 11.0098V9.00977H18.9999V16.0098C18.9999 18.0038 18.9939 19.4868 18.8789 20.5098C18.8825 21.1523 18.6745 21.7782 18.2869 22.2908C18.0199 22.5578 18.5329 22.7688 17.5059 22.8848C16.3413 23.0042 15.17 23.046 13.9999 23.0098H8.99986C7.8318 23.0468 6.66257 23.0064 5.49986 22.8888C4.85731 22.8923 4.23146 22.6842 3.71886 22.2968C3.33047 21.7845 3.12171 21.1586 3.12486 20.5158C3.00486 19.4888 2.99986 18.0098 2.99986 16.0098V9.00977Z" fill="#809FB8"/>
</svg>
