<svg width="27" height="21" viewBox="0 0 27 21" fill="none" xmlns="http://www.w3.org/2000/svg">
<path d="M8.00003 0.00987688C6.80711 -0.0186816 5.6135 0.0147027 4.42403 0.109883C3.98435 0.0978829 3.54683 0.175665 3.13823 0.33849C2.72963 0.501315 2.35852 0.74576 2.0476 1.05687C1.73667 1.36799 1.49245 1.73924 1.32988 2.14794C1.1673 2.55664 1.08977 2.99421 1.10203 3.43389C0.992396 3.95158 0.95804 4.48237 1.00003 5.00988V15.0099C0.957046 15.5373 0.990728 16.0681 1.10003 16.5859C1.08803 17.0256 1.16582 17.4631 1.32865 17.8717C1.49147 18.2803 1.73591 18.6514 2.04703 18.9623C2.35814 19.2732 2.7294 19.5175 3.1381 19.68C3.54679 19.8426 3.98436 19.9202 4.42403 19.9079C5.61348 20.0034 6.80707 20.0375 8.00003 20.0099H19C20.193 20.0385 21.3866 20.0051 22.576 19.9099C23.0157 19.9219 23.4532 19.8441 23.8618 19.6813C24.2704 19.5184 24.6415 19.274 24.9525 18.9629C25.2634 18.6518 25.5076 18.2805 25.6702 17.8718C25.8328 17.4631 25.9103 17.0255 25.898 16.5859C26.0077 16.0682 26.042 15.5374 26 15.0099V5.00988C26.0431 4.48247 26.0094 3.95163 25.9 3.43389C25.912 2.9942 25.8342 2.55666 25.6714 2.14806C25.5086 1.73946 25.2642 1.36838 24.953 1.05745C24.6419 0.746527 24.2707 0.50229 23.862 0.339711C23.4533 0.177132 23.0157 0.0996019 22.576 0.111867C21.3866 0.0162926 20.193 -0.0177425 19 0.00987688H8.00003ZM8.00003 2.00988H19C20.5 2.00988 21.6 2.01587 22.35 2.09987C22.5633 2.06127 22.7828 2.07489 22.9897 2.13955C23.1967 2.2042 23.3848 2.31796 23.5382 2.47115C23.6916 2.62434 23.8056 2.81239 23.8706 3.01922C23.9355 3.22604 23.9494 3.4455 23.911 3.65886C24.0206 4.10036 24.0507 4.55783 24 5.00988V6.00988H20C19.9265 6.0088 19.853 6.01584 19.781 6.03087C18.762 6.08447 17.8025 6.52703 17.1001 7.26726C16.3978 8.0075 16.0063 8.98899 16.0063 10.0094C16.0063 11.0298 16.3978 12.0113 17.1001 12.7515C17.8025 13.4918 18.762 13.9343 19.781 13.9879C19.853 14.0033 19.9264 14.0107 20 14.0099H24V15.0099C24.0501 15.4617 24.0196 15.9187 23.91 16.3599C23.9485 16.5731 23.9347 16.7925 23.87 16.9993C23.8052 17.206 23.6914 17.3941 23.5383 17.5474C23.3851 17.7006 23.1971 17.8145 22.9904 17.8794C22.7837 17.9443 22.5643 17.9582 22.351 17.9199C21.605 18.0039 20.496 18.0099 18.999 18.0099H8.00003C7.61803 18.0099 7.33203 18.0039 7.00003 18.0019V2.01787C7.33203 2.01787 7.61803 2.00988 8.00003 2.00988ZM5.00003 2.07988V17.9389C4.90003 17.9309 4.74404 17.9299 4.65004 17.9189C4.43679 17.9573 4.21742 17.9435 4.01065 17.8788C3.80387 17.8141 3.61583 17.7003 3.46257 17.5471C3.30931 17.3939 3.19538 17.206 3.13051 16.9992C3.06564 16.7925 3.05175 16.5731 3.09003 16.3599C2.98018 15.9188 2.9497 15.4617 3.00003 15.0099V5.00988C2.94977 4.5581 2.98024 4.10098 3.09003 3.65987C3.05143 3.44656 3.06504 3.22707 3.12969 3.02016C3.19435 2.81325 3.30813 2.62505 3.46131 2.47167C3.6145 2.31829 3.80254 2.20428 4.00937 2.13936C4.2162 2.07444 4.43567 2.06054 4.64903 2.09887C4.74303 2.08787 4.89503 2.08788 5.00103 2.07888L5.00003 2.07988ZM20 8.00988H24V12.0099H20C19.4696 12.0099 18.9609 11.7992 18.5858 11.4241C18.2107 11.049 18 10.5403 18 10.0099C18 9.47944 18.2107 8.97073 18.5858 8.59566C18.9609 8.22059 19.4696 8.00988 20 8.00988ZM20 9.00988C19.8023 9.00988 19.6089 9.06851 19.4445 9.1784C19.28 9.28828 19.1518 9.44446 19.0762 9.62719C19.0005 9.80991 18.9807 10.011 19.0193 10.205C19.0578 10.399 19.1531 10.5771 19.2929 10.717C19.4328 10.8568 19.611 10.9521 19.8049 10.9907C19.9989 11.0292 20.2 11.0095 20.3827 10.9338C20.5654 10.8581 20.7216 10.7299 20.8315 10.5654C20.9414 10.401 21 10.2077 21 10.0099C21 9.74466 20.8947 9.49032 20.7071 9.30278C20.5196 9.11525 20.2653 9.00988 20 9.00988Z" fill="#809FB8"/>
</svg>
